<svg xmlns="http://www.w3.org/2000/svg" width="46.571" height="46.557" viewBox="0 0 46.571 46.557">
  <path id="Path_1241" data-name="Path 1241" d="M337.5-234.93c.035-.13.074-.258.106-.389a4.094,4.094,0,0,1,5.115-2.989c.114.032.229.061.343.092a4.175,4.175,0,0,1,5.387-2.758l1.166-1.875a38.847,38.847,0,0,1-2.5-3.956,11.308,11.308,0,0,1,1.32-12.694,9.57,9.57,0,0,1,15.3.386c.41.541.773,1.117,1.145,1.658.485-.664.945-1.359,1.47-2a9.689,9.689,0,0,1,16.294,1.8,11.844,11.844,0,0,1-.648,12.3,28.46,28.46,0,0,1-5.367,6.133c-3.042,2.73-6.145,5.391-9.21,8.1a1.78,1.78,0,0,0-.407.7c-.351.917-.656,1.85-1.016,2.763-1.285,3.263-2.593,6.517-3.872,9.782a2.149,2.149,0,0,1-1.091,1.306H341.226a2.04,2.04,0,0,1-1.094-1.4c-.861-2.78-1.752-5.55-2.632-8.323Zm28.675,1.233c.091-.064.144-.093.188-.132,3.129-2.768,6.284-5.509,9.376-8.318a21.239,21.239,0,0,0,4.069-4.86,9.2,9.2,0,0,0,.312-9.627,6.989,6.989,0,0,0-11.7-1.055,12.96,12.96,0,0,0-2.11,3.735c-.042.113-.074.231-.116.344a1.353,1.353,0,0,1-1.325.979,1.324,1.324,0,0,1-1.3-1,13.136,13.136,0,0,0-2.06-3.915,6.888,6.888,0,0,0-10.762-.487,8.75,8.75,0,0,0-1.911,8.147,13.693,13.693,0,0,0,3,5.277,2.718,2.718,0,0,0,2.023.865c0-1.492-.024-2.945.006-4.4a4.081,4.081,0,0,1,4.009-3.958,4.08,4.08,0,0,1,4.156,4.087c.019,3.028,0,6.057.011,9.085a.909.909,0,0,0,.129.545C363.487-236.825,364.822-235.277,366.175-233.7Zm-4.138-.652v.574c0,.712.013,1.424-.005,2.135a1.364,1.364,0,0,1-1.24,1.34,1.363,1.363,0,0,1-1.441-1.061,2.643,2.643,0,0,1-.039-.586q0-7.86,0-15.72c0-.151.007-.3-.006-.454a1.384,1.384,0,0,0-1.234-1.253,1.338,1.338,0,0,0-1.412.972,2.451,2.451,0,0,0-.071.671q-.006,7.86,0,15.72c0,.151.007.3-.006.454a1.383,1.383,0,0,1-1.23,1.256,1.34,1.34,0,0,1-1.415-.968,2.262,2.262,0,0,1-.071-.625q-.007-3.907,0-7.815a1.39,1.39,0,0,0-.682-1.3,1.358,1.358,0,0,0-2.044,1.265c-.007,2.635,0,5.27,0,7.905a1.385,1.385,0,0,1-1.366,1.539,1.387,1.387,0,0,1-1.359-1.545c0-1.7,0-3.393,0-5.089a1.388,1.388,0,0,0-1.363-1.542,1.387,1.387,0,0,0-1.362,1.543c0,1.727,0,3.453,0,5.179a1.369,1.369,0,0,1-1.359,1.454,1.371,1.371,0,0,1-1.364-1.449c-.007-.818,0-1.636,0-2.453a1.39,1.39,0,0,0-1.358-1.547,1.386,1.386,0,0,0-1.367,1.537c0,2.347-.011,4.695.008,7.042a4.6,4.6,0,0,0,.2,1.339c.66,2.074,1.359,4.136,2.031,6.206a.391.391,0,0,0,.442.329q8.269-.011,16.538,0a.38.38,0,0,0,.424-.3c.177-.5.387-.985.582-1.477q1.857-4.679,3.716-9.358a1.373,1.373,0,0,0-.044-1.427C363.487-232.671,362.8-233.447,362.037-234.349Z" transform="translate(-337.5 263.13)" fill="#fff"/>
</svg>
