<svg id="Group_128" data-name="Group 128" xmlns="http://www.w3.org/2000/svg" width="35.42" height="39.529" viewBox="0 0 35.42 39.529">
  <path id="Path_1205" data-name="Path 1205" d="M-348.782,269.329c-.41-.1-.827-.177-1.228-.3a6.143,6.143,0,0,1-4.272-5.577c-.005-.116-.01-.231-.01-.347q0-13.528,0-27.054a6.015,6.015,0,0,1,2.905-5.3,5.794,5.794,0,0,1,3.213-.939q9.533,0,19.066,0A6.075,6.075,0,0,1-323,235.646c.089,3.278.036,6.56.023,9.84a1.51,1.51,0,0,1-1.514,1.531,1.529,1.529,0,0,1-1.555-1.533c-.027-.964-.009-1.929-.009-2.894,0-2.11-.043-4.22.012-6.329a3.231,3.231,0,0,0-3.37-3.386c-6.2.044-12.4.015-18.6.018a3.067,3.067,0,0,0-3.114,2.42,4.023,4.023,0,0,0-.075.881q-.006,13.373,0,26.746a3.087,3.087,0,0,0,3.307,3.3q2.374,0,4.747,0a1.576,1.576,0,0,1,1.7,1.206,1.558,1.558,0,0,1-1.1,1.829c-.021.009-.035.035-.052.053Z" transform="translate(354.294 -229.8)" fill="#fff"/>
  <path id="Path_1206" data-name="Path 1206" d="M-327.9,279.926a1.616,1.616,0,0,1-1.175-1.376,1.985,1.985,0,0,1,.082-.719c.587-1.968,1.179-3.935,1.793-5.894a2,2,0,0,1,.469-.778q4.189-4.212,8.4-8.4a4.624,4.624,0,0,1,6.528-.03,4.629,4.629,0,0,1,.033,6.559q-4.18,4.221-8.416,8.387a2.493,2.493,0,0,1-1.035.542c-1.923.558-3.857,1.081-5.786,1.618a1.474,1.474,0,0,0-.2.09Zm2.636-3.778c1.071-.3,2.059-.569,3.042-.856a.908.908,0,0,0,.329-.252q2.585-2.574,5.164-5.153c.088-.089.172-.183.229-.243l-2.167-2.165a.765.765,0,0,0-.088.072q-2.72,2.711-5.437,5.425a.66.66,0,0,0-.173.247C-324.658,274.167-324.945,275.112-325.261,276.148Zm8.868-10.938,2.157,2.162a1.576,1.576,0,0,0,.694-1.644,1.443,1.443,0,0,0-1.091-1.178A1.6,1.6,0,0,0-316.393,265.211Z" transform="translate(345.837 -240.397)" fill="#fff"/>
  <path id="Path_1207" data-name="Path 1207" d="M-335.538,246.83q-3.953,0-7.906,0a1.535,1.535,0,0,1-1.5-1.062,1.447,1.447,0,0,1,.528-1.68,2.218,2.218,0,0,1,1.111-.33c4.19-.023,8.382-.014,12.573-.014,1.016,0,2.031,0,3.047,0a1.54,1.54,0,0,1,1.646,1.556,1.538,1.538,0,0,1-1.634,1.53Q-331.6,246.835-335.538,246.83Z" transform="translate(351.184 -234.476)" fill="#fff"/>
  <path id="Path_1208" data-name="Path 1208" d="M-335.507,256.124c-2.635,0-5.271,0-7.906,0a1.532,1.532,0,0,1-1.567-1.835,1.5,1.5,0,0,1,1.426-1.242q8.041-.015,16.083,0a1.5,1.5,0,0,1,1.44,1.559,1.517,1.517,0,0,1-1.491,1.513c-1.118.019-2.237.006-3.355.006Z" transform="translate(351.179 -237.593)" fill="#fff"/>
  <path id="Path_1209" data-name="Path 1209" d="M-338.628,262.328q2.335,0,4.668,0a1.559,1.559,0,0,1,1.687,1.559,1.559,1.559,0,0,1-1.681,1.527q-4.687,0-9.375,0a1.559,1.559,0,0,1-1.685-1.56,1.554,1.554,0,0,1,1.679-1.527Q-340.982,262.324-338.628,262.328Z" transform="translate(351.181 -240.709)" fill="#fff"/>
</svg>
