<svg id="Group_132" data-name="Group 132" xmlns="http://www.w3.org/2000/svg" width="38.948" height="38.946" viewBox="0 0 38.948 38.946">
  <path id="Path_1242" data-name="Path 1242" d="M666.847-169.087c0-.592,0-1.142,0-1.692,0-.419-.012-.839.007-1.257a1.144,1.144,0,0,1,1.11-1.165,1.14,1.14,0,0,1,1.161,1.157c.028.864.008,1.73.011,2.6,0,.105.016.21.026.337h6.869v-2.183c-.452,0-.9,0-1.357,0a10.087,10.087,0,0,1-1.012-.021,1.1,1.1,0,0,1-1.023-1.15,1.077,1.077,0,0,1,1.035-1.092c.592-.041,1.188-.025,1.783-.026,1.284,0,2.568-.008,3.853,0a1.149,1.149,0,0,1,1.292,1.06,1.116,1.116,0,0,1-1.087,1.215c-.375.028-.754,0-1.157,0v2.215h.439c1.568,0,3.136-.005,4.7,0a1.105,1.105,0,0,1,1.169,1.089,1.137,1.137,0,0,1-1.248,1.183c-1.69.006-3.38,0-5.069,0h-2.689v1.025c0,.716,0,1.433,0,2.149,0,.8-.436,1.3-1.126,1.3s-1.149-.51-1.152-1.324c0-.906,0-1.811,0-2.717v-.413h-4.249c0,.7,0,1.385,0,2.07,0,1.1-.392,1.483-1.493,1.483-2.23,0-4.461,0-6.691,0a1.135,1.135,0,0,1-1.215-1.388,1.124,1.124,0,0,1,1.192-.885c1.811,0,3.623,0,5.434,0h.46v-1.269H656.815c0,.905,0,1.805,0,2.705,0,.3.011.6,0,.892a1.151,1.151,0,0,1-1.156,1.164,1.13,1.13,0,0,1-1.117-1.192c-.013-1.175,0-2.35,0-3.595h-.429c-1.6,0-3.19.006-4.785,0a1.138,1.138,0,0,1-1.21-1.222,1.118,1.118,0,0,1,1.051-1.046c.161-.012.324-.007.486-.007h17.2Z" transform="translate(-646.922 187.42)" fill="#fff"/>
  <path id="Path_1243" data-name="Path 1243" d="M672.839-223.941c0-.757-.005-1.513,0-2.27a1.128,1.128,0,0,1,1.226-1.247q2.29-.019,4.58,0a1.151,1.151,0,0,1,1.259,1.264q.009,2.27,0,4.54a1.148,1.148,0,0,1-1.255,1.266q-2.29.017-4.58,0a1.128,1.128,0,0,1-1.23-1.241C672.834-222.4,672.839-223.171,672.839-223.941Zm4.766,1.249v-2.461h-2.459v2.461Z" transform="translate(-667.813 232.934)" fill="#fff"/>
  <path id="Path_1244" data-name="Path 1244" d="M813.41-223.945c0-.77-.006-1.54,0-2.31a1.113,1.113,0,0,1,1.181-1.208q2.351-.025,4.7,0a1.122,1.122,0,0,1,1.18,1.214q.011,2.31,0,4.621a1.128,1.128,0,0,1-1.207,1.228q-2.33.023-4.662,0a1.12,1.12,0,0,1-1.2-1.234C813.4-222.4,813.409-223.175,813.41-223.945Zm2.3,1.236h2.465v-2.45H815.71Z" transform="translate(-786.557 232.942)" fill="#fff"/>
  <path id="Path_1245" data-name="Path 1245" d="M672.839-89.241c0-.757-.006-1.513,0-2.27a1.144,1.144,0,0,1,1.266-1.251q2.27-.009,4.54,0a1.156,1.156,0,0,1,1.259,1.265q.009,2.27,0,4.54a1.142,1.142,0,0,1-1.254,1.264q-2.29.017-4.58,0a1.123,1.123,0,0,1-1.231-1.237C672.833-87.7,672.839-88.471,672.839-89.241Zm4.777-1.206h-2.472v2.441h2.472Z" transform="translate(-667.813 119.148)" fill="#fff"/>
  <path id="Path_1246" data-name="Path 1246" d="M813.455-99.062h-.6c-1.04,0-2.08.007-3.12,0a1.13,1.13,0,0,1-1.211-1.135,1.142,1.142,0,0,1,1.216-1.138c1.08-.009,2.161,0,3.241,0h.474c0-1.041,0-2.037,0-3.033a3.415,3.415,0,0,1,.04-.6,1.1,1.1,0,0,1,1.162-.914,1.111,1.111,0,0,1,1.062.984,1.831,1.831,0,0,1,.021.242c0,2.215.007,4.43,0,6.644a1.128,1.128,0,0,1-.95,1.221,1.131,1.131,0,0,1-1.326-1.13C813.436-98.29,813.455-98.653,813.455-99.062Z" transform="translate(-782.428 130.237)" fill="#fff"/>
  <path id="Path_1247" data-name="Path 1247" d="M729.052-223.515h-2.566c-.011.2-.019.4-.034.6a1.134,1.134,0,0,1-1.041,1.061,1.135,1.135,0,0,1-1.178-.853,1.266,1.266,0,0,1-.05-.319c0-1.068-.015-2.136,0-3.2a1.139,1.139,0,0,1,1.146-1.172,1.142,1.142,0,0,1,1.128,1.184c0,.119.011.238.017.382h2.55c.009-.165.012-.335.03-.5a1.151,1.151,0,0,1,1.17-1.063,1.112,1.112,0,0,1,1.093,1.13q.023,1.905,0,3.811a1.092,1.092,0,0,1-1.088,1.126,1.122,1.122,0,0,1-1.176-1.089C729.033-222.772,729.052-223.123,729.052-223.515Z" transform="translate(-711.181 232.88)" fill="#fff"/>
  <path id="Path_1248" data-name="Path 1248" d="M850.574-52.584c0-1.258-.01-2.446,0-3.634a1.1,1.1,0,0,1,1.228-1.147,1.1,1.1,0,0,1,1.036,1.1q.028,2.413,0,4.826a1.116,1.116,0,0,1-1.186,1.129q-2.352.018-4.7,0a1.121,1.121,0,0,1-1.166-1.143,1.106,1.106,0,0,1,1.172-1.127c1.041-.012,2.082,0,3.123,0Z" transform="translate(-813.909 89.245)" fill="#fff"/>
  <path id="Path_1249" data-name="Path 1249" d="M850.574-260.39c-1.231,0-2.406.006-3.58,0a1.13,1.13,0,0,1-1.205-1.143,1.086,1.086,0,0,1,1.052-1.12q2.474-.029,4.948,0a1.069,1.069,0,0,1,1.053,1.081q.032,2.433,0,4.867a1.114,1.114,0,0,1-1.164,1.1,1.121,1.121,0,0,1-1.1-1.165c-.012-1.041,0-2.082,0-3.123Z" transform="translate(-813.91 262.671)" fill="#fff"/>
  <path id="Path_1250" data-name="Path 1250" d="M642.792-52.587h2.032c.514,0,1.027-.007,1.541,0a1.13,1.13,0,0,1,1.189,1.118,1.142,1.142,0,0,1-1.2,1.155c-1.109.012-2.217,0-3.326,0-.446,0-.893.009-1.338,0a1.133,1.133,0,0,1-1.195-1.2q-.012-2.332,0-4.664a1.117,1.117,0,0,1,1.146-1.2,1.129,1.129,0,0,1,1.127,1.221c.007,1.095,0,2.19,0,3.285C642.769-52.788,642.781-52.71,642.792-52.587Z" transform="translate(-640.487 89.249)" fill="#fff"/>
  <path id="Path_1251" data-name="Path 1251" d="M642.762-260.393c0,1.25.007,2.438,0,3.625a1.116,1.116,0,0,1-.791,1.1,1.046,1.046,0,0,1-1.2-.348,1.4,1.4,0,0,1-.269-.736c-.024-1.593-.02-3.186-.008-4.779a1.1,1.1,0,0,1,1.163-1.138q2.369-.014,4.738,0a1.123,1.123,0,0,1,1.157,1.107A1.129,1.129,0,0,1,646.4-260.4c-1.053.015-2.106,0-3.159.005Z" transform="translate(-640.482 262.674)" fill="#fff"/>
  <path id="Path_1252" data-name="Path 1252" d="M761.493-93.719c0-1.307,0-2.562,0-3.816,0-.311-.012-.622.006-.932a1.142,1.142,0,0,1,1.17-1.1,1.122,1.122,0,0,1,1.095,1.131q.016,2.939,0,5.879a1.07,1.07,0,0,1-1.1,1.11q-1.722.034-3.446,0a1.1,1.1,0,0,1-1.136-1.124,1.125,1.125,0,0,1,1.128-1.141c.607-.025,1.216-.007,1.824-.008Z" transform="translate(-739.821 124.894)" fill="#fff"/>
  <path id="Path_1253" data-name="Path 1253" d="M678.23-174.03c1.391,0,2.782-.013,4.173.005a1.129,1.129,0,0,1,1.178,1.132,1.159,1.159,0,0,1-1.178,1.143c-.108.006-.216,0-.324,0h-5.51c-.824,0-1.648.01-2.471,0a1.141,1.141,0,0,1-1.222-1.284,1.138,1.138,0,0,1,1.263-1c1.364-.009,2.728,0,4.092,0Z" transform="translate(-667.84 187.798)" fill="#fff"/>
  <path id="Path_1254" data-name="Path 1254" d="M782.558-223.3c0-.958-.005-1.917,0-2.876a1.14,1.14,0,0,1,1.119-1.229,1.14,1.14,0,0,1,1.154,1.2q.015,2.936,0,5.872a1.127,1.127,0,0,1-.987,1.19,1.105,1.105,0,0,1-1.228-.766,1.836,1.836,0,0,1-.058-.519C782.555-221.38,782.558-222.339,782.558-223.3Z" transform="translate(-760.496 232.878)" fill="#fff"/>
  <path id="Path_1255" data-name="Path 1255" d="M726.943-96.235c0,.539.009,1.079,0,1.618a1.108,1.108,0,0,1-1.133,1.163,1.122,1.122,0,0,1-1.138-1.166q-.021-1.638,0-3.276a1.134,1.134,0,0,1,1.14-1.17,1.132,1.132,0,0,1,1.13,1.173C726.952-97.34,726.943-96.787,726.943-96.235Z" transform="translate(-711.589 124.469)" fill="#fff"/>
  <path id="Path_1256" data-name="Path 1256" d="M801.367-97.077c.176,0,.351-.008.527,0A1.138,1.138,0,0,1,803.007-96a1.123,1.123,0,0,1-1,1.18,6,6,0,0,1-1.293,0,1.1,1.1,0,0,1-.961-1.2,1.1,1.1,0,0,1,1.086-1.045C801.016-97.084,801.192-97.076,801.367-97.077Z" transform="translate(-775.022 122.792)" fill="#fff"/>
  <path id="Path_1257" data-name="Path 1257" d="M750.852-81.4c.176,0,.352-.007.527,0a1.107,1.107,0,0,1,1.106,1.069,1.1,1.1,0,0,1-.986,1.183,6,6,0,0,1-1.294,0,1.113,1.113,0,0,1-.972-1.2,1.129,1.129,0,0,1,1.092-1.048c.175-.01.351,0,.527,0Z" transform="translate(-732.345 109.552)" fill="#fff"/>
  <path id="Path_1258" data-name="Path 1258" d="M749.564-176.781c0,.2.017.406,0,.607a1.089,1.089,0,0,1-1.011.986,1.045,1.045,0,0,1-1.181-.82,5.679,5.679,0,0,1-.007-1.565,1.069,1.069,0,0,1,1.156-.864,1.126,1.126,0,0,1,1.048,1.049c.016.2,0,.4,0,.607Z" transform="translate(-730.724 191.519)" fill="#fff"/>
</svg>
