<svg id="Group_146" data-name="Group 146" xmlns="http://www.w3.org/2000/svg" width="42.103" height="48.142" viewBox="0 0 42.103 48.142">
  <path id="Path_1221" data-name="Path 1221" d="M378.118,148.284H415.54c1.906.81,2.33,1.462,2.33,3.579v41.218c0,.188.006.376-.007.564a2.818,2.818,0,0,1-1.515,2.435,8.478,8.478,0,0,1-.809.345H378.118c-1.763-.551-2.352-1.794-2.349-3.579q.049-20.609.018-41.219c0-.188-.006-.376.006-.564a2.8,2.8,0,0,1,1.392-2.365A7.792,7.792,0,0,1,378.118,148.284Zm-.039,12.7H415.55c.011-.163.027-.3.027-.437q0-4.558,0-9.118c0-.72-.156-.867-.894-.867h-35.72c-.735,0-.885.146-.885.875q0,3.219,0,6.439Zm26.554,33.171h10.02c.794,0,.926-.132.926-.93q0-14.686,0-29.373c0-.166-.014-.333-.022-.508H404.632Zm-2.351-16.6V163.342H391.367v14.205Zm0,16.58V179.9h-10.9v14.225ZM378.1,177.547h10.912v-14.2H378.1Zm0,2.338c-.008.171-.021.294-.021.419q0,6.506,0,13.01c0,.688.161.838.875.838q4.791,0,9.582,0c.153,0,.305-.012.479-.02V179.884Z" transform="translate(-375.769 -148.284)"/>
  <path id="Path_1222" data-name="Path 1222" d="M416.12,181.028c.924,0,1.848-.018,2.77,0a1.138,1.138,0,0,1,1.174,1.536,1.1,1.1,0,0,1-1.089.746c-1.926.013-3.851.018-5.776,0a1.137,1.137,0,1,1,.01-2.274c.97-.028,1.94-.007,2.911-.007Z" transform="translate(-381.801 -153.727)"/>
  <path id="Path_1223" data-name="Path 1223" d="M416.072,185.818c.94,0,1.878-.007,2.818,0a1.141,1.141,0,1,1-.008,2.269q-2.794.009-5.588,0a1.139,1.139,0,1,1,.007-2.269C414.225,185.813,415.149,185.818,416.072,185.818Z" transform="translate(-381.802 -154.524)"/>
  <path id="Path_1224" data-name="Path 1224" d="M400.233,175.773c-.939,0-1.878.012-2.816,0a1.126,1.126,0,0,1-1.153-.85,1.058,1.058,0,0,1,.464-1.222,1.605,1.605,0,0,1,.752-.2q2.745-.025,5.49-.005a1.158,1.158,0,0,1,1.274,1.147,1.174,1.174,0,0,1-1.29,1.137C402.047,175.782,401.14,175.774,400.233,175.773Z" transform="translate(-379.169 -152.473)"/>
  <path id="Path_1225" data-name="Path 1225" d="M403.756,191.934a3.518,3.518,0,0,1-.449.784q-2.117,2.162-4.275,4.285a1.129,1.129,0,0,1-1.637.058,1.146,1.146,0,0,1,.041-1.673q2.129-2.151,4.279-4.28a1.1,1.1,0,0,1,1.294-.256A1.278,1.278,0,0,1,403.756,191.934Z" transform="translate(-379.308 -155.343)"/>
  <path id="Path_1226" data-name="Path 1226" d="M399.181,191.929a.965.965,0,1,1-1.929-.028.965.965,0,1,1,1.929.028Z" transform="translate(-379.341 -155.376)"/>
  <path id="Path_1227" data-name="Path 1227" d="M403.463,198.11a.958.958,0,1,1,.954-.945A.946.946,0,0,1,403.463,198.11Z" transform="translate(-380.212 -156.25)"/>
  <path id="Path_1228" data-name="Path 1228" d="M385.468,175.217c0,.576.006,1.076,0,1.575a1.137,1.137,0,1,1-2.266,0c-.007-.5,0-1,0-1.575-.537,0-1.045,0-1.554,0a1.186,1.186,0,0,1-1.132-.617,1.1,1.1,0,0,1,.874-1.64c.573-.054,1.154-.011,1.815-.011,0-.611-.015-1.166,0-1.721a1.129,1.129,0,0,1,2.257,0c.018.544,0,1.088,0,1.724.652,0,1.258-.032,1.86.009a1.052,1.052,0,0,1,.937.861,1.087,1.087,0,0,1-.491,1.177,2.03,2.03,0,0,1-.8.2C386.49,175.24,386.006,175.217,385.468,175.217Z" transform="translate(-376.534 -151.915)"/>
  <path id="Path_1229" data-name="Path 1229" d="M382.909,194.054c-.483-.456-.912-.843-1.319-1.251a1.148,1.148,0,1,1,1.617-1.6c.407.407.792.836,1.258,1.331.461-.491.845-.921,1.251-1.331a1.147,1.147,0,1,1,1.612,1.6c-.407.409-.835.8-1.327,1.267.476.446.907.83,1.315,1.238a1.152,1.152,0,1,1-1.619,1.6c-.4-.4-.779-.813-1.276-1.334-.486.534-.907,1.034-1.372,1.491a1.119,1.119,0,0,1-1.868-1.044,1.653,1.653,0,0,1,.394-.672C381.98,194.92,382.421,194.524,382.909,194.054Z" transform="translate(-376.663 -155.344)"/>
</svg>
