<svg xmlns="http://www.w3.org/2000/svg" width="57.393" height="49.133" viewBox="0 0 57.393 49.133">
  <path id="Path_1284" data-name="Path 1284" d="M255.338,175.818a2.938,2.938,0,0,1,1.381-1.609q12.986-8.868,25.958-17.759c1.192-.816,1.581-.816,2.781.006q3.886,2.66,7.77,5.323c.18.124.368.237.64.411.024-.293.053-.489.054-.684.005-1.1-.01-2.206.008-3.309a1.6,1.6,0,0,1,1.788-1.751q3.786-.006,7.572,0a1.7,1.7,0,0,1,1.933,1.921c0,3.683.009,7.367-.008,11.05a.961.961,0,0,0,.482.912q3.116,2.1,6.2,4.238a1.607,1.607,0,1,1-1.86,2.6c-1.364-.918-2.716-1.854-4.074-2.782-.2-.135-.4-.262-.7-.462-.015.324-.034.552-.034.779q0,14.079-.005,28.158a4.17,4.17,0,0,1-.1.942,1.482,1.482,0,0,1-1.4,1.161c-.186.011-.374.009-.561.009q-19.1,0-38.2,0a3.992,3.992,0,0,1-.892-.053,1.63,1.63,0,0,1-1.172-1.544c-.016-.186-.006-.374-.006-.561q0-14.023,0-28.046v-.844c-.279.172-.464.276-.639.395q-1.922,1.31-3.842,2.625c-1.523,1.04-2.282.844-3.075-.788ZM302.021,186.7q0-7.208.005-14.416a.934.934,0,0,0-.424-.892q-8.57-5.843-17.118-11.717a.626.626,0,0,0-.838-.009q-8.548,5.874-17.116,11.72a.891.891,0,0,0-.438.828q.012,14.472,0,28.945c0,.492.146.633.639.63,3.309-.021,6.619-.026,9.928,0,.581.005.714-.164.712-.722-.02-5.591-.012-11.181-.012-16.772,0-1.423.535-1.967,1.956-1.969q4.74-.007,9.48,0c1.43,0,1.969.541,1.969,1.956q0,8.386,0,16.772c0,.721,0,.721.742.722,3.272,0,6.544-.016,9.816.015.594.006.712-.19.71-.733C302.014,196.27,302.021,191.483,302.021,186.7Zm-14.459,6.958c0-2.5-.01-5.009.009-7.513,0-.453-.118-.619-.594-.614q-2.915.035-5.831,0c-.472-.006-.6.153-.6.61q.02,7.513,0,15.026c0,.454.118.616.594.61q2.915-.036,5.831,0c.471.006.6-.147.6-.606C287.552,198.663,287.562,196.159,287.562,193.655Zm14.357-25.99a1.278,1.278,0,0,0,.08-.254q.009-3.67.015-7.34c0-.36-.2-.43-.5-.428-1.289.007-2.578.014-3.867,0-.4-.005-.515.152-.51.53.015,1.289-.013,2.578.023,3.866a.976.976,0,0,0,.376.662c1.293.92,2.61,1.807,3.921,2.7C301.588,167.489,301.734,167.559,301.919,167.664Z" transform="translate(-255.338 -155.84)"/>
</svg>
