<svg id="Group_145" data-name="Group 145" xmlns="http://www.w3.org/2000/svg" width="67.402" height="49.259" viewBox="0 0 67.402 49.259">
  <path id="Path_1210" data-name="Path 1210" d="M-275.6-91.859a1.871,1.871,0,0,1-1.725.809q-31.987-.028-63.973-.015c-1.339,0-1.7-.37-1.7-1.728q0-19.811,0-39.621c0-1.333.376-1.7,1.735-1.7l2.238,0c.043,0,.087-.012.238-.034,0-.781,0-1.582,0-2.383,0-1.174.357-1.531,1.542-1.669q8.165-.952,16.327-1.931a20.63,20.63,0,0,1,11.115,1.6,1.128,1.128,0,0,0,1.038-.006,20.716,20.716,0,0,1,11.246-1.573c4.328.547,8.664,1.022,13,1.529,1.154.135,2.309.264,3.462.409a1.272,1.272,0,0,1,1.251,1.4c.011.853,0,1.707,0,2.657.878,0,1.725.029,2.569-.008a1.52,1.52,0,0,1,1.642.93Zm-34.933-7.75v-35.8c0-.11.037-.239-.008-.325-.108-.208-.209-.5-.391-.579a17.4,17.4,0,0,0-8.988-1.421c-2.878.3-5.75.659-8.624,1-2.565.3-5.13.612-7.725.922v36.832a3.777,3.777,0,0,0,.411,0c4.594-.542,9.19-1.071,13.781-1.636a22.694,22.694,0,0,1,7.2-.043C-313.44-100.383-312.033-99.979-310.532-99.609Zm28.2-36.207c-.721-.091-1.413-.183-2.106-.264-4.375-.514-8.753-1-13.123-1.547a18.947,18.947,0,0,0-9.866,1.186.885.885,0,0,0-.658.955q.029,17.633.016,35.266c0,.226.022.453.035.725.359-.128.625-.224.892-.317a18.609,18.609,0,0,1,8.02-1.068c4.274.422,8.535.975,12.8,1.47,1.318.153,2.637.3,3.986.448Zm-58.159,42.223h62.358v-37.983h-1.679v2.543q0,15.565,0,31.13c0,1.217-.5,1.675-1.71,1.553-.676-.068-1.349-.165-2.024-.244-4.659-.546-9.325-1.042-13.976-1.651a18.535,18.535,0,0,0-11,1.7,1.676,1.676,0,0,1-1.565.006,26.827,26.827,0,0,0-2.738-1.1,19.306,19.306,0,0,0-8.584-.558c-5.131.655-10.275,1.214-15.411,1.83-1.491.178-1.974-.22-1.974-1.725q0-16.355,0-32.709v-.769h-1.7Z" transform="translate(343.001 140.309)" fill="#fff"/>
  <path id="Path_1211" data-name="Path 1211" d="M-272.119-4.426a1.212,1.212,0,0,1-1.569,1.275,18.478,18.478,0,0,0-6.328-.521c-2.355.228-4.7.539-7.054.816-2.024.238-4.047.488-6.072.716-.927.1-1.554-.356-1.609-1.135-.051-.727.491-1.241,1.394-1.345,4.354-.5,8.705-1.033,13.062-1.509a19.3,19.3,0,0,1,7.169.583A1.2,1.2,0,0,1-272.119-4.426Z" transform="translate(303.223 29.773)" fill="#fff"/>
  <path id="Path_1212" data-name="Path 1212" d="M-273.464-67.971c-.33-.073-.8-.179-1.268-.282a21.035,21.035,0,0,0-7.195-.09c-3.784.475-7.573.906-11.36,1.347a1.252,1.252,0,0,1-1.449-1.109,1.221,1.221,0,0,1,1.151-1.342c4.811-.553,9.62-1.137,14.439-1.616a16.326,16.326,0,0,1,6.111.681,1.174,1.174,0,0,1,.908,1.4A1.241,1.241,0,0,1-273.464-67.971Z" transform="translate(303.214 83.269)" fill="#fff"/>
  <path id="Path_1213" data-name="Path 1213" d="M-272.068,27.966A1.23,1.23,0,0,1-273.71,29.2a17.569,17.569,0,0,0-6-.533c-2.378.222-4.747.542-7.12.82-2.046.239-4.092.485-6.139.713a2.238,2.238,0,0,1-.91-.038,1.126,1.126,0,0,1-.813-1.215,1.122,1.122,0,0,1,1-1.132c1.258-.18,2.52-.329,3.782-.476,3.331-.387,6.659-.8,9.995-1.139a19.161,19.161,0,0,1,6.841.616A1.193,1.193,0,0,1-272.068,27.966Z" transform="translate(303.172 3.097)" fill="#fff"/>
  <path id="Path_1214" data-name="Path 1214" d="M-273.319-100.328c-1.071-.193-2.015-.389-2.966-.53a22.288,22.288,0,0,0-5.962.189q-5.516.659-11.036,1.283c-1.08.121-1.841-.793-1.37-1.669a1.636,1.636,0,0,1,1.051-.735c1.993-.3,4-.519,6-.75,2.591-.3,5.18-.61,7.775-.868a18.987,18.987,0,0,1,6.644.619,1.218,1.218,0,0,1,1.01,1.456A1.19,1.19,0,0,1-273.319-100.328Z" transform="translate(303.257 109.948)" fill="#fff"/>
  <path id="Path_1215" data-name="Path 1215" d="M-278.344-39.5c1.725.277,3.451.544,5.173.837a1.172,1.172,0,0,1,1.049,1.029c.145.946-.6,1.56-1.631,1.375s-2.064-.406-3.105-.523a31.869,31.869,0,0,0-7.136.461c-3.092.348-6.18.733-9.272,1.09a1.256,1.256,0,0,1-1.462-1.094,1.209,1.209,0,0,1,1.065-1.355q7.051-.827,14.108-1.611a10.676,10.676,0,0,1,1.183-.006Z" transform="translate(303.208 57.192)" fill="#fff"/>
  <path id="Path_1216" data-name="Path 1216" d="M-130.588,25.473c2.7.3,5.163.567,7.623.848,2.439.279,4.876.573,7.314.861a6.221,6.221,0,0,1,.714.1,1.186,1.186,0,0,1,.977,1.346A1.152,1.152,0,0,1-115.23,29.7c-1.441-.126-2.876-.313-4.313-.476-3.245-.369-6.485-.78-9.735-1.095a16.347,16.347,0,0,0-5.542.522c-.91.227-1.565-.124-1.738-.9-.16-.714.279-1.321,1.2-1.491C-133.708,25.953-132.043,25.709-130.588,25.473Z" transform="translate(172.82 3.626)" fill="#fff"/>
  <path id="Path_1217" data-name="Path 1217" d="M-130.607-6.915c2.786.307,5.291.575,7.794.861,2.482.283,4.962.588,7.444.873a1.433,1.433,0,0,1,1.3.742,1.235,1.235,0,0,1-1.38,1.746c-1.657-.166-3.308-.392-4.963-.577-3.071-.344-6.136-.793-9.217-.967a31.881,31.881,0,0,0-5.016.467,6,6,0,0,1-.776.117,1.242,1.242,0,0,1-1.166-1.139,1.206,1.206,0,0,1,.989-1.291C-133.86-6.4-132.111-6.668-130.607-6.915Z" transform="translate(172.822 30.329)" fill="#fff"/>
  <path id="Path_1218" data-name="Path 1218" d="M-115.417-99.213c-2.078-.245-4.3-.51-6.519-.768-2.395-.279-4.787-.59-7.187-.814a16.975,16.975,0,0,0-5.672.523c-.918.227-1.566-.107-1.748-.884-.167-.714.292-1.289,1.175-1.522a22.631,22.631,0,0,1,8.81-.354c3.586.465,7.181.855,10.773,1.278.261.031.523.06.781.11a1.2,1.2,0,0,1,1.055,1.349C-114.011-99.627-114.539-99.194-115.417-99.213Z" transform="translate(172.809 109.794)" fill="#fff"/>
  <path id="Path_1219" data-name="Path 1219" d="M-130.573-71.683c2.394.262,4.529.485,6.662.73q4.344.5,8.684,1.031c.911.11,1.369.636,1.275,1.414-.09.745-.711,1.13-1.615,1.025q-6.662-.772-13.325-1.531a16.717,16.717,0,0,0-5.867.493c-.934.228-1.576-.083-1.775-.852a1.24,1.24,0,0,1,1.138-1.538C-133.72-71.217-132.031-71.453-130.573-71.683Z" transform="translate(172.809 83.729)" fill="#fff"/>
  <path id="Path_1220" data-name="Path 1220" d="M-130.577-39.306c2.841.312,5.368.581,7.893.87,2.46.282,4.918.588,7.377.878.95.112,1.441.62,1.352,1.419-.085.763-.737,1.15-1.671,1.043-4.615-.532-9.224-1.143-13.852-1.53a28.941,28.941,0,0,0-5.083.432c-.173.017-.339.089-.512.113a1.22,1.22,0,0,1-1.481-.965,1.175,1.175,0,0,1,.956-1.419C-133.839-38.795-132.068-39.06-130.577-39.306Z" transform="translate(172.813 57.034)" fill="#fff"/>
</svg>
