<svg id="Group_147" data-name="Group 147" xmlns="http://www.w3.org/2000/svg" width="57.003" height="52.771" viewBox="0 0 57.003 52.771">
  <path id="Path_1230" data-name="Path 1230" d="M0,538.161c-.094.336-.174.677-.283,1.008a5.526,5.526,0,0,1-5.188,3.858c-4.378.046-8.758.018-13.136.015a.864.864,0,0,1-.969-.848c.006-.491.383-.816.99-.816q6.288-.006,12.579,0a3.979,3.979,0,0,0,4.338-4.318V493.587c0-1.243-.385-1.628-1.625-1.628H-44.205c-1.186,0-1.572.381-1.573,1.56q0,10.409,0,20.818a2.548,2.548,0,0,1-.071.713.742.742,0,0,1-.854.554.749.749,0,0,1-.727-.713,5.166,5.166,0,0,1-.014-.612V499.2H-48.99c-1.633,0-3.265,0-4.9,0-.979,0-1.442.457-1.442,1.423q0,18.367,0,36.736a3.948,3.948,0,0,0,3.913,4.014,3.955,3.955,0,0,0,3.959-3.971c.033-2.282.008-4.565.009-6.847q0-6.149,0-12.3a1.256,1.256,0,0,1,.126-.741,1.08,1.08,0,0,1,.771-.385,1.156,1.156,0,0,1,.683.527,1.373,1.373,0,0,1,.082.7c0,6.2-.006,12.394.009,18.59a6.046,6.046,0,0,1-1.438,4.211,1.072,1.072,0,0,0-.1.217H-22.3c.889,0,1.255.234,1.268.809.012.591-.39.86-1.283.86q-14.361,0-28.721,0A5.634,5.634,0,0,1-57,537.077q0-18.174,0-36.346a2.915,2.915,0,0,1,3.214-3.2q2.839,0,5.677,0h.662c0-1.015,0-1.974,0-2.933,0-.482-.008-.965,0-1.447a2.845,2.845,0,0,1,2.873-2.855c1.726-.016,3.451,0,5.177,0H-3.55c2.075,0,2.757.449,3.551,2.338Z" transform="translate(57.002 -490.284)" fill="#fff"/>
  <path id="Path_1231" data-name="Path 1231" d="M-32.41,524.254c-1.836,0-3.672,0-5.509,0a1.951,1.951,0,0,1-2.156-2.128q-.013-5.565,0-11.129a1.953,1.953,0,0,1,2.156-2.129q5.537,0,11.074,0a1.986,1.986,0,0,1,2.167,2.184q.006,5.509,0,11.018a1.98,1.98,0,0,1-2.167,2.184C-28.7,524.259-30.555,524.254-32.41,524.254Zm.057-1.67c1.78,0,3.559-.014,5.339.01.5.006.679-.144.677-.665q-.029-5.367,0-10.733c0-.512-.159-.672-.671-.669q-5.367.028-10.734,0c-.515,0-.675.158-.673.665q.025,5.367,0,10.734c0,.5.15.678.669.671C-35.95,522.567-34.151,522.584-32.353,522.584Z" transform="translate(56.403 -490.941)" fill="#fff"/>
  <path id="Path_1232" data-name="Path 1232" d="M-22.667,530.218H-6.638a4.628,4.628,0,0,1,.556.009.784.784,0,0,1,.759.81.791.791,0,0,1-.734.836,2.986,2.986,0,0,1-.5.015h-32.28a2.7,2.7,0,0,1-.5-.014.786.786,0,0,1-.725-.84.773.773,0,0,1,.755-.807,4.445,4.445,0,0,1,.556-.01Z" transform="translate(56.403 -491.696)" fill="#fff"/>
  <path id="Path_1233" data-name="Path 1233" d="M-22.7,537.339H-6.78c.13,0,.259,0,.39,0,.692.011,1.088.322,1.077.843s-.407.825-1.106.825q-10.686,0-21.369,0-5.51,0-11.019,0a2.44,2.44,0,0,1-.714-.071.74.74,0,0,1-.536-.863.734.734,0,0,1,.668-.705,4.5,4.5,0,0,1,.667-.026Z" transform="translate(56.403 -491.948)" fill="#fff"/>
  <path id="Path_1234" data-name="Path 1234" d="M-20.352,502.384c.385-1.57.751-3,1.083-4.441a.816.816,0,0,1,.885-.728.845.845,0,0,1,.979.749c.313,1.406.68,2.8,1.137,4.227.057-.177.119-.351.171-.529.606-2.08,1.2-4.163,1.827-6.236.08-.263.337-.658.524-.665a2.338,2.338,0,0,1,1.113.343c.11.059.149.414.094.594q-1.285,4.167-2.609,8.321c-.175.548-.551.726-1.3.69-.655-.032-.936-.243-1.077-.83-.23-.954-.451-1.91-.681-2.864a4.306,4.306,0,0,0-.16-.415c-.273,1.137-.511,2.139-.751,3.139-.175.724-.435.945-1.136.97-.781.029-1.117-.187-1.335-.877q-1.256-3.972-2.507-7.945c-.2-.645-.054-.92.586-1.112s.9-.042,1.095.617q.93,3.17,1.859,6.342C-20.506,501.907-20.45,502.076-20.352,502.384Z" transform="translate(55.841 -490.44)" fill="#fff"/>
  <path id="Path_1235" data-name="Path 1235" d="M-35.242,500.454v-.86c0-1.391-.006-2.783,0-4.174,0-.5.309-.729.9-.72.577.009.861.225.862.7.007,2.838.014,5.676-.016,8.514a.876.876,0,0,1-.458.639,1.088,1.088,0,0,1-1.276-.266,2.322,2.322,0,0,1-.29-.472q-1.2-2.228-2.39-4.458c-.085-.158-.177-.313-.335-.591-.023.281-.046.432-.047.585,0,1.465,0,2.931,0,4.4,0,.646-.267.9-.914.891-.628-.01-.85-.235-.85-.881q0-4.036,0-8.07c0-.344-.086-.738.368-.888a1.243,1.243,0,0,1,1.4.232,3.482,3.482,0,0,1,.513.786c.732,1.394,1.453,2.794,2.179,4.191.081.157.173.309.259.462Z" transform="translate(56.402 -490.44)" fill="#fff"/>
  <path id="Path_1236" data-name="Path 1236" d="M-29.729,496.247v2.733c.6,0,1.191,0,1.778,0,.568.006.795.206.8.684s-.228.686-.79.69c-.588,0-1.177,0-1.794,0V503.1h.615c1.021,0,2.041.006,3.062,0,.516,0,.677.314.685.752s-.127.787-.645.789c-1.577.007-3.154.016-4.731-.006-.608-.009-.774-.217-.775-.83,0-2.765.009-5.53-.01-8.295,0-.557.265-.8.76-.8q2.393-.025,4.786,0c.514.006.629.395.613.821-.016.41-.167.723-.658.721-1.021,0-2.041,0-3.062,0Z" transform="translate(56.101 -490.44)" fill="#fff"/>
  <path id="Path_1237" data-name="Path 1237" d="M-8.428,504.766a4.022,4.022,0,0,1-2.555-.78,1.262,1.262,0,0,1-.518-.791,1.483,1.483,0,0,1,.48-.959c.115-.1.6.047.8.221a2.435,2.435,0,0,0,2.292.683A1.126,1.126,0,0,0-7,502.354a1.137,1.137,0,0,0-.389-1.254,7.106,7.106,0,0,0-1.04-.628,18.6,18.6,0,0,1-1.9-1.031,2.612,2.612,0,0,1,.287-4.315,4.717,4.717,0,0,1,3.985-.135.806.806,0,0,1,.543,1.151c-.194.518-.461.591-1,.441a8.958,8.958,0,0,0-1.881-.346,1,1,0,0,0-1.122.8c-.129.6.258.938.725,1.177.61.311,1.255.553,1.854.882A3.025,3.025,0,0,1-5.3,502.766,2.969,2.969,0,0,1-8.428,504.766Z" transform="translate(55.392 -490.437)" fill="#fff"/>
  <path id="Path_1238" data-name="Path 1238" d="M-13.247,524.757c-2.5,0-5,.013-7.506-.016a1.383,1.383,0,0,1-.914-.367.768.768,0,0,1,.44-1.229,2.474,2.474,0,0,1,.66-.056q7.313,0,14.624,0c.111,0,.223,0,.334,0,.584.031.964.387.94.878a.85.85,0,0,1-.96.787Q-9.438,524.763-13.247,524.757Z" transform="translate(55.758 -491.444)" fill="#fff"/>
  <path id="Path_1239" data-name="Path 1239" d="M-13.247,508.866c2.521,0,5.041,0,7.563,0a.888.888,0,0,1,.946.526.818.818,0,0,1-.646,1.128,3.22,3.22,0,0,1-.555.019H-20.564a2.587,2.587,0,0,1-.555-.021.781.781,0,0,1-.695-.862.75.75,0,0,1,.78-.776c.741-.026,1.483-.01,2.224-.01Z" transform="translate(55.757 -490.941)" fill="#fff"/>
  <path id="Path_1240" data-name="Path 1240" d="M-13.242,515.987H-5.9a3.333,3.333,0,0,1,.555.025.694.694,0,0,1,.653.762,1.456,1.456,0,0,1-.55.795c-.155.125-.461.084-.7.085q-7.31.006-14.622,0a2.594,2.594,0,0,1-.66-.06.743.743,0,0,1-.586-.831.744.744,0,0,1,.678-.754,3.432,3.432,0,0,1,.555-.022Z" transform="translate(55.757 -491.193)" fill="#fff"/>
</svg>
