<svg id="Group_144" data-name="Group 144" xmlns="http://www.w3.org/2000/svg" width="51.825" height="52.53" viewBox="0 0 51.825 52.53">
  <path id="Path_1201" data-name="Path 1201" d="M-257.934,400.635a1.748,1.748,0,0,1-1.114-1.865c.026-2.615,0-5.229.012-7.844a7.456,7.456,0,0,1,6.254-7.461,9.505,9.505,0,0,1,1.684-.112q8.869-.011,17.738.009a.806.806,0,0,0,.919-.616c1.236-3.344,2.508-6.675,3.756-10.014a2.619,2.619,0,0,0,.162-.892c.01-5.332,0-10.663.01-16a4.579,4.579,0,0,1,3.312-4.535,4.606,4.606,0,0,1,5.891,4.6c.021,3.127,0,6.254,0,9.382,0,2.512.031,5.024-.019,7.536a6.961,6.961,0,0,1-.406,2.246q-2.794,7.533-5.684,15.03a6.083,6.083,0,0,0-.42,2.326c.026,2.1-.021,4.2.023,6.305a1.821,1.821,0,0,1-1.053,1.9Z" transform="translate(271.12 -348.105)"/>
  <path id="Path_1202" data-name="Path 1202" d="M-230.975,376.457a10.751,10.751,0,0,1,10.691,10.822,10.769,10.769,0,0,1-10.824,10.643,10.739,10.739,0,0,1-10.627-10.827A10.729,10.729,0,0,1-230.975,376.457Z" transform="translate(259.712 -364.798)"/>
  <path id="Path_1203" data-name="Path 1203" d="M-284.866,364.869c-.512,0-1.025.011-1.537,0a1.356,1.356,0,0,1-1.415-1.43,33.471,33.471,0,0,1,.337-3.766,7.317,7.317,0,0,1,2.273-3.985c1-1,2.071-1.935,3.086-2.923a2.63,2.63,0,0,0,.714-2.5,3.171,3.171,0,0,0-3.775-2.486c-1.656.2-2.533,1.123-2.927,3.07-.037.184-.064.37-.107.553a1.389,1.389,0,0,1-1.377,1.152q-1.716.033-3.434,0a1.419,1.419,0,0,1-1.4-1.606,8.959,8.959,0,0,1,7.761-8.47,10.614,10.614,0,0,1,8.089,1.577,8.046,8.046,0,0,1,1.185,12.342,27.768,27.768,0,0,1-2.786,2.566,4.263,4.263,0,0,0-1.7,3.7c.077,1.453-.226,2.361-2.271,2.213C-284.387,364.855-284.627,364.87-284.866,364.869Z" transform="translate(294.436 -342.275)"/>
  <path id="Path_1204" data-name="Path 1204" d="M-275.1,417.929c0-.512-.017-1.025,0-1.536a1.355,1.355,0,0,1,1.356-1.382q1.586-.046,3.174,0a1.318,1.318,0,0,1,1.367,1.315c.049,1.089.047,2.184,0,3.274a1.3,1.3,0,0,1-1.322,1.3c-1.09.042-2.185.043-3.274-.005a1.334,1.334,0,0,1-1.3-1.382C-275.118,418.988-275.1,418.458-275.1,417.929Z" transform="translate(281.7 -390.186)"/>
</svg>
